<svg width="42" height="42" viewBox="0 0 42 42" fill="none" xmlns="http://www.w3.org/2000/svg">
<g clip-path="url(#clip0_4001_2524)">
<path d="M35.8515 6.14851C27.6535 -2.0495 14.3465 -2.0495 6.14851 6.14851C-2.0495 14.3465 -2.0495 27.6535 6.14851 35.8515C14.3465 44.0495 27.6535 44.0495 35.8515 35.8515C44.0495 27.6535 44.0495 14.3465 35.8515 6.14851Z" fill="#F0831F"/>
<path d="M27.8571 22.3337H22.1429V29.0003C22.1429 29.7337 21.6286 30.3337 21 30.3337C20.3714 30.3337 19.8571 29.7337 19.8571 29.0003V22.3337H14.1429C13.5143 22.3337 13 21.7337 13 21.0003C13 20.267 13.5143 19.667 14.1429 19.667H19.8571V13.0003C19.8571 12.267 20.3714 11.667 21 11.667C21.6286 11.667 22.1429 12.267 22.1429 13.0003V19.667H27.8571C28.4857 19.667 29 20.267 29 21.0003C29 21.7337 28.4857 22.3337 27.8571 22.3337Z" fill="white"/>
</g>
<defs>
<clipPath id="clip0_4001_2524">
<rect width="42" height="42" fill="white"/>
</clipPath>
</defs>
</svg>
