<svg width="48" height="48" viewBox="0 0 48 48" fill="none" xmlns="http://www.w3.org/2000/svg">
<rect width="48" height="48" rx="24" fill="white"/>
<path d="M26.5558 17.3111C26.1577 17.7258 26.1577 18.3957 26.5558 18.8105L30.5063 22.9366L15.0208 22.9366C14.4594 22.9366 14 23.4151 14 24C14 24.5849 14.4594 25.0634 15.0208 25.0634L30.5063 25.0634L26.5456 29.1895C26.1475 29.6043 26.1475 30.2742 26.5456 30.6889C26.9437 31.1037 27.5868 31.1037 27.9849 30.6889L33.7014 24.7444C34.0995 24.3297 34.0995 23.6597 33.7014 23.245L27.9952 17.3111C27.597 16.8963 26.9437 16.8963 26.5558 17.3111Z" fill="#11408D"/>
</svg>
