<svg width="48" height="48" viewBox="0 0 48 48" fill="none" xmlns="http://www.w3.org/2000/svg">
<rect width="48" height="48" rx="24" fill="white"/>
<path d="M21.4442 17.3111C21.8423 17.7258 21.8423 18.3957 21.4442 18.8105L17.4937 22.9366L32.9792 22.9366C33.5406 22.9366 34 23.4151 34 24C34 24.5849 33.5406 25.0634 32.9792 25.0634L17.4937 25.0634L21.4544 29.1895C21.8525 29.6043 21.8525 30.2742 21.4544 30.6889C21.0563 31.1037 20.4132 31.1037 20.0151 30.6889L14.2986 24.7444C13.9005 24.3297 13.9005 23.6597 14.2986 23.245L20.0048 17.3111C20.403 16.8963 21.0563 16.8963 21.4442 17.3111Z" fill="#11408D"/>
</svg>
