<svg width="88" height="88" viewBox="0 0 88 88" fill="none" xmlns="http://www.w3.org/2000/svg">
<g clip-path="url(#clip0_4001_3439)">
<rect width="88" height="88" rx="14" fill="#F4F6F9"/>
<path d="M44.0121 62C41.53 62 39.1974 61.5275 37.0147 60.5825C34.8315 59.6375 32.9225 58.3475 31.2875 56.7125C29.6525 55.0775 28.3625 53.1674 27.4175 50.9822C26.4725 48.797 26 46.4621 26 43.9775C26 41.4929 26.4725 39.158 27.4175 36.9728C28.3625 34.7876 29.6525 32.885 31.2875 31.265C32.9225 29.645 34.8326 28.3625 37.0178 27.4175C39.203 26.4725 41.5379 26 44.0225 26C46.5071 26 48.842 26.4725 51.0272 27.4175C53.2124 28.3625 55.115 29.645 56.735 31.265C58.355 32.885 59.6375 34.79 60.5825 36.98C61.5275 39.17 62 41.506 62 43.9879C62 46.4701 61.5275 48.8025 60.5825 50.9853C59.6375 53.1684 58.355 55.0748 56.735 56.7044C55.115 58.3337 53.21 59.6237 51.02 60.5744C48.83 61.5248 46.4941 62 44.0121 62ZM44 59.3C48.2714 59.3 51.8893 57.8075 54.8536 54.8225C57.8179 51.8375 59.3 48.23 59.3 44V43.415C59.12 44.195 58.7089 44.8475 58.0666 45.3725C57.4246 45.8975 56.6657 46.16 55.79 46.16H52.19C51.2 46.16 50.3525 45.8075 49.6475 45.1025C48.9425 44.3975 48.59 43.55 48.59 42.56V40.76H41.39V37.16C41.39 36.17 41.7425 35.3225 42.4475 34.6175C43.1525 33.9125 44 33.56 44.99 33.56H46.79V32.57C46.79 32.09 46.9925 31.49 47.3975 30.77C47.8025 30.05 48.26 29.615 48.77 29.465C48.02 29.225 47.2496 29.0375 46.4588 28.9025C45.6683 28.7675 44.8487 28.7 44 28.7C39.77 28.7 36.1625 30.1821 33.1775 33.1465C30.1925 36.1108 28.7 39.7286 28.7 44H35.45C37.43 44 39.125 44.705 40.535 46.115C41.945 47.525 42.65 49.22 42.65 51.2V53H37.25V57.725C38.27 58.235 39.3455 58.625 40.4765 58.895C41.6075 59.165 42.782 59.3 44 59.3Z" fill="#11408D"/>
</g>
<defs>
<clipPath id="clip0_4001_3439">
<rect width="88" height="88" fill="white"/>
</clipPath>
</defs>
</svg>
