<svg width="88" height="88" viewBox="0 0 88 88" fill="none" xmlns="http://www.w3.org/2000/svg">
<rect width="88" height="88" rx="14" fill="#F4F6F9"/>
<path d="M29.425 60C27.425 60 25.7167 59.2833 24.3 57.85C22.8833 56.4167 22.1417 54.6833 22.075 52.65C22.075 52.35 22.0917 52.05 22.125 51.75C22.1583 51.45 22.2083 51.15 22.275 50.85L26.475 34.05C26.9417 32.25 27.8917 30.7917 29.325 29.675C30.7583 28.5583 32.3917 28 34.225 28H53.725C55.5583 28 57.1917 28.5583 58.625 29.675C60.0584 30.7917 61.0084 32.25 61.475 34.05L65.675 50.85C65.7417 51.15 65.8 51.4583 65.85 51.775C65.9 52.0917 65.925 52.4 65.925 52.7C65.925 54.7333 65.2 56.4583 63.75 57.875C62.3 59.2917 60.5584 60 58.525 60C57.125 60 55.825 59.6333 54.625 58.9C53.425 58.1667 52.525 57.1667 51.925 55.9L50.525 53C50.3584 52.6667 50.1084 52.4167 49.775 52.25C49.4417 52.0833 49.0917 52 48.725 52H39.225C38.8583 52 38.5083 52.0833 38.175 52.25C37.8417 52.4167 37.5917 52.6667 37.425 53L36.025 55.9C35.425 57.1667 34.525 58.1667 33.325 58.9C32.125 59.6333 30.825 60 29.425 60ZM46.975 42C47.5417 42 48.0167 41.8083 48.4 41.425C48.7833 41.0417 48.975 40.5667 48.975 40C48.975 39.4333 48.7833 38.9583 48.4 38.575C48.0167 38.1917 47.5417 38 46.975 38C46.4083 38 45.9333 38.1917 45.55 38.575C45.1667 38.9583 44.975 39.4333 44.975 40C44.975 40.5667 45.1667 41.0417 45.55 41.425C45.9333 41.8083 46.4083 42 46.975 42ZM50.975 38C51.5417 38 52.0167 37.8083 52.4 37.425C52.7833 37.0417 52.975 36.5667 52.975 36C52.975 35.4333 52.7833 34.9583 52.4 34.575C52.0167 34.1917 51.5417 34 50.975 34C50.4083 34 49.9333 34.1917 49.55 34.575C49.1667 34.9583 48.975 35.4333 48.975 36C48.975 36.5667 49.1667 37.0417 49.55 37.425C49.9333 37.8083 50.4083 38 50.975 38ZM50.975 46C51.5417 46 52.0167 45.8083 52.4 45.425C52.7833 45.0417 52.975 44.5667 52.975 44C52.975 43.4333 52.7833 42.9583 52.4 42.575C52.0167 42.1917 51.5417 42 50.975 42C50.4083 42 49.9333 42.1917 49.55 42.575C49.1667 42.9583 48.975 43.4333 48.975 44C48.975 44.5667 49.1667 45.0417 49.55 45.425C49.9333 45.8083 50.4083 46 50.975 46ZM54.975 42C55.5417 42 56.0167 41.8083 56.4 41.425C56.7834 41.0417 56.975 40.5667 56.975 40C56.975 39.4333 56.7834 38.9583 56.4 38.575C56.0167 38.1917 55.5417 38 54.975 38C54.4084 38 53.9334 38.1917 53.55 38.575C53.1667 38.9583 52.975 39.4333 52.975 40C52.975 40.5667 53.1667 41.0417 53.55 41.425C53.9334 41.8083 54.4084 42 54.975 42ZM36.975 45C37.4083 45 37.7667 44.8583 38.05 44.575C38.3333 44.2917 38.475 43.9333 38.475 43.5V41.5H40.475C40.9083 41.5 41.2667 41.3583 41.55 41.075C41.8333 40.7917 41.975 40.4333 41.975 40C41.975 39.5667 41.8333 39.2083 41.55 38.925C41.2667 38.6417 40.9083 38.5 40.475 38.5H38.475V36.5C38.475 36.0667 38.3333 35.7083 38.05 35.425C37.7667 35.1417 37.4083 35 36.975 35C36.5417 35 36.1833 35.1417 35.9 35.425C35.6167 35.7083 35.475 36.0667 35.475 36.5V38.5H33.475C33.0417 38.5 32.6833 38.6417 32.4 38.925C32.1167 39.2083 31.975 39.5667 31.975 40C31.975 40.4333 32.1167 40.7917 32.4 41.075C32.6833 41.3583 33.0417 41.5 33.475 41.5H35.475V43.5C35.475 43.9333 35.6167 44.2917 35.9 44.575C36.1833 44.8583 36.5417 45 36.975 45Z" fill="#11408D"/>
</svg>
