<svg width="88" height="88" viewBox="0 0 88 88" fill="none" xmlns="http://www.w3.org/2000/svg">
<g clip-path="url(#clip0_4001_11051)">
<rect width="88" height="88" rx="14" fill="#F4F6F9"/>
<path d="M42.392 43.4496C42.6107 43.4496 42.8212 43.42 43.0236 43.3607C43.2257 43.3015 43.4179 43.2224 43.6 43.1234L53.2 37.4156C53.4885 37.2618 53.674 37.0263 53.7564 36.7091C53.8388 36.3919 53.8 36.0853 53.64 35.7893C53.48 35.4933 53.24 35.3031 52.92 35.2185C52.6 35.134 52.2933 35.1733 52 35.3364L42.4 41.0442L32.76 35.3364C32.4667 35.1733 32.16 35.134 31.84 35.2185C31.52 35.3031 31.28 35.4933 31.12 35.7893C30.96 36.0853 30.92 36.3964 31 36.7225C31.08 37.0487 31.2667 37.2933 31.56 37.4564L41.2 43.1234C41.3789 43.2224 41.5677 43.3015 41.7664 43.3607C41.9651 43.42 42.1736 43.4496 42.392 43.4496ZM28 49.3613V35.4994C28 35.0646 28.1051 34.6597 28.3152 34.2849C28.5251 33.9104 28.82 33.6085 29.2 33.3794L41.2 26.3262C41.4133 26.1903 41.6127 26.1019 41.798 26.0612C41.9833 26.0204 42.1833 26 42.398 26C42.6127 26 42.82 26.0204 43.02 26.0612C43.22 26.1019 43.4133 26.1903 43.6 26.3262L55.6 33.3794C55.98 33.6085 56.2751 33.9104 56.4852 34.2849C56.6951 34.6597 56.8 35.0646 56.8 35.4994V43.5719C56.8 43.9454 56.6533 44.2358 56.36 44.4432C56.0667 44.6506 55.7467 44.6863 55.4 44.5504C54.92 44.3873 54.4333 44.265 53.94 44.1835C53.4467 44.1019 52.9333 44.0612 52.4 44.0612C49.68 44.0612 47.3333 45.0602 45.36 47.0582C43.3867 49.0559 42.4 51.468 42.4 54.2945C42.4 54.9196 42.4467 55.47 42.54 55.9456C42.6333 56.4213 42.76 56.8901 42.92 57.3522C43.08 57.8143 42.9667 58.2084 42.58 58.5345C42.1933 58.8607 41.8 58.9015 41.4 58.6569L29.2 51.4813C28.82 51.2522 28.5251 50.9504 28.3152 50.5758C28.1051 50.201 28 49.7962 28 49.3613ZM52.4 62C50.32 62 48.5333 61.2471 47.04 59.7413C45.5467 58.2356 44.8 56.4145 44.8 54.2781C44.8 52.1418 45.5467 50.3126 47.04 48.7905C48.5333 47.2684 50.32 46.5074 52.4 46.5074C54.48 46.5074 56.2667 47.2666 57.76 48.7852C59.2533 50.3035 60 52.1399 60 54.2945C60 56.4262 59.2533 58.2434 57.76 59.7462C56.2667 61.2487 54.48 62 52.4 62ZM52.38 59.5538C52.6067 59.5538 52.8 59.479 52.96 59.3296C53.12 59.1801 53.2 58.983 53.2 58.7384C53.2 58.4938 53.12 58.2967 52.96 58.1472C52.8 57.9977 52.6133 57.923 52.4 57.923C52.16 57.923 51.9667 57.9977 51.82 58.1472C51.6733 58.2967 51.6 58.4938 51.6 58.7384C51.6 58.983 51.6733 59.1801 51.82 59.3296C51.9667 59.479 52.1533 59.5538 52.38 59.5538ZM52.4 56.2922C52.6133 56.2922 52.8 56.2106 52.96 56.0476C53.12 55.8845 53.2 55.6942 53.2 55.4768V49.769C53.2 49.5515 53.12 49.3613 52.96 49.1982C52.8 49.0351 52.6133 48.9536 52.4 48.9536C52.1867 48.9536 52 49.0351 51.84 49.1982C51.68 49.3613 51.6 49.5515 51.6 49.769V55.4768C51.6 55.6942 51.68 55.8845 51.84 56.0476C52 56.2106 52.1867 56.2922 52.4 56.2922Z" fill="#11408D"/>
</g>
<defs>
<clipPath id="clip0_4001_11051">
<rect width="88" height="88" fill="white"/>
</clipPath>
</defs>
</svg>
