<svg width="88" height="88" viewBox="0 0 88 88" fill="none" xmlns="http://www.w3.org/2000/svg">
<g clip-path="url(#clip0_4001_9771)">
<rect width="88" height="88" rx="14" fill="#F4F6F9"/>
<path d="M29.6842 62C28.9684 62 28.3421 61.73 27.8053 61.19C27.2684 60.65 27 60.02 27 59.3V28.7C27 27.98 27.2684 27.35 27.8053 26.81C28.3421 26.27 28.9684 26 29.6842 26H43.7763C44.1342 26 44.4846 26.075 44.8276 26.225C45.1706 26.375 45.4614 26.57 45.7 26.81L54.8263 35.99C55.0649 36.23 55.2588 36.5225 55.4079 36.8675C55.557 37.2125 55.6316 37.565 55.6316 37.925V42.38C55.6316 42.62 55.557 42.8375 55.4079 43.0325C55.2588 43.2275 55.0649 43.355 54.8263 43.415C54.4684 43.565 54.1254 43.7375 53.7974 43.9325C53.4693 44.1275 53.1561 44.375 52.8579 44.675L43.0158 54.53C42.7772 54.77 42.5833 55.0625 42.4342 55.4075C42.2851 55.7525 42.2105 56.105 42.2105 56.465V60.65C42.2105 61.04 42.0838 61.3625 41.8303 61.6175C41.5768 61.8725 41.2561 62 40.8684 62H29.6842ZM44.8947 60.65V57.005C44.8947 56.825 44.9246 56.66 44.9842 56.51C45.0439 56.36 45.1482 56.21 45.2974 56.06L54.7816 46.565C55.05 46.295 55.3482 46.1 55.6763 45.98C56.0044 45.86 56.3325 45.8 56.6605 45.8C57.0184 45.8 57.3614 45.8675 57.6895 46.0025C58.0175 46.1375 58.3158 46.34 58.5842 46.61L60.2395 48.275C60.5079 48.545 60.7018 48.845 60.8211 49.175C60.9404 49.505 61 49.835 61 50.165C61 50.495 60.9329 50.8325 60.7987 51.1775C60.6645 51.5225 60.4632 51.83 60.1947 52.1L50.8 61.595C50.6509 61.745 50.5018 61.85 50.3526 61.91C50.2035 61.97 50.0395 62 49.8605 62H46.2368C45.8491 62 45.5285 61.8725 45.275 61.6175C45.0215 61.3625 44.8947 61.04 44.8947 60.65ZM56.6605 51.92L58.3158 50.165L56.6605 48.5L54.9605 50.21L56.6605 51.92ZM44.4474 38.6H52.9474L43.1053 28.7V37.25C43.1053 37.64 43.232 37.9625 43.4855 38.2175C43.739 38.4725 44.0597 38.6 44.4474 38.6Z" fill="#11408D"/>
</g>
<defs>
<clipPath id="clip0_4001_9771">
<rect width="88" height="88" fill="white"/>
</clipPath>
</defs>
</svg>
