<svg width="310" height="90" viewBox="0 0 310 90" fill="none" xmlns="http://www.w3.org/2000/svg">
<path d="M101.224 70.249C101.687 70.3794 102.075 70.4177 102.387 70.364C102.707 70.3026 102.991 70.0879 103.239 69.7197L103.647 69.1328L103.827 68.9372L106.61 63.7134H108.517L104.942 70.0879C104.623 70.6632 104.243 71.1043 103.803 71.4111C103.371 71.7179 102.895 71.8905 102.375 71.9289C101.855 71.9749 101.316 71.8867 100.756 71.6642L101.224 70.249ZM103.791 70.4906L100 63.7134H102.075L104.858 69.1213L103.791 70.4906Z" fill="#11408D"/>
<path d="M113.141 69.3975C112.877 69.5356 112.585 69.6468 112.265 69.7312C111.945 69.8156 111.593 69.8577 111.21 69.8577C110.362 69.8577 109.71 69.6736 109.254 69.3054C108.798 68.9296 108.57 68.3351 108.57 67.522V65.5774H110.442V67.4069C110.442 67.7904 110.546 68.0666 110.754 68.2354C110.962 68.3964 111.254 68.477 111.629 68.477C111.901 68.477 112.161 68.4463 112.409 68.3849C112.665 68.3236 112.909 68.2354 113.141 68.1203V69.3975ZM113.009 71.7678V65.5774H114.88V71.7678H113.009Z" fill="#11408D"/>
<path d="M119.832 71.8598C119.096 71.8598 118.449 71.7218 117.889 71.4456C117.337 71.1695 116.909 70.7936 116.605 70.318C116.301 69.8347 116.149 69.2863 116.149 68.6726C116.149 68.0513 116.297 67.5028 116.593 67.0272C116.897 66.5439 117.309 66.1681 117.829 65.8996C118.349 65.6234 118.937 65.4854 119.592 65.4854C120.224 65.4854 120.792 65.6158 121.296 65.8766C121.808 66.1297 122.211 66.4979 122.507 66.9812C122.803 67.4568 122.951 68.0282 122.951 68.6956C122.951 68.7646 122.947 68.8452 122.939 68.9372C122.931 69.0216 122.923 69.1022 122.915 69.1789H117.673V68.1318H121.932L121.212 68.4425C121.212 68.1203 121.144 67.8403 121.008 67.6025C120.872 67.3647 120.684 67.1806 120.444 67.0502C120.204 66.9121 119.924 66.8431 119.604 66.8431C119.284 66.8431 119 66.9121 118.753 67.0502C118.513 67.1806 118.325 67.3685 118.189 67.614C118.053 67.8518 117.985 68.1356 117.985 68.4655V68.7416C117.985 69.0791 118.061 69.3783 118.213 69.6391C118.373 69.8923 118.593 70.0879 118.873 70.2259C119.16 70.3563 119.496 70.4215 119.88 70.4215C120.224 70.4215 120.524 70.3717 120.78 70.272C121.044 70.1722 121.284 70.0227 121.5 69.8232L122.495 70.8588C122.199 71.181 121.828 71.4303 121.38 71.6067C120.932 71.7755 120.416 71.8598 119.832 71.8598Z" fill="#11408D"/>
<path d="M127.589 71.9059C127.061 71.9059 126.581 71.833 126.149 71.6872C125.717 71.5338 125.341 71.2999 125.021 70.9854C124.71 70.6632 124.466 70.2528 124.29 69.7542C124.122 69.2556 124.038 68.6611 124.038 67.9707C124.038 67.4798 124.082 67.031 124.17 66.6245C124.258 66.2179 124.39 65.8497 124.566 65.5199C124.742 65.1824 124.965 64.887 125.237 64.6339C125.517 64.3731 125.841 64.1583 126.209 63.9895C126.585 63.8131 127.009 63.6789 127.481 63.5868L130.552 63L130.804 64.5418L128.092 65.0596C127.933 65.0903 127.749 65.1325 127.541 65.1862C127.341 65.2322 127.137 65.3051 126.929 65.4048C126.729 65.5045 126.541 65.6464 126.365 65.8305C126.197 66.007 126.061 66.2409 125.957 66.5324C125.853 66.8162 125.801 67.1691 125.801 67.591C125.801 67.7214 125.805 67.8211 125.813 67.8902C125.829 67.9592 125.841 68.0321 125.849 68.1088C125.865 68.1855 125.873 68.3044 125.873 68.4655L125.273 67.9017C125.449 67.5411 125.673 67.2343 125.945 66.9812C126.225 66.728 126.545 66.5363 126.905 66.4059C127.273 66.2678 127.681 66.1987 128.128 66.1987C128.736 66.1987 129.268 66.3176 129.724 66.5554C130.188 66.7856 130.548 67.1116 130.804 67.5335C131.06 67.9554 131.187 68.4348 131.187 68.9718C131.187 69.5547 131.036 70.0687 130.732 70.5136C130.428 70.9508 130.004 71.2922 129.46 71.5377C128.924 71.7831 128.3 71.9059 127.589 71.9059ZM127.685 70.5136C127.997 70.5136 128.272 70.4484 128.512 70.318C128.752 70.1799 128.936 69.9997 129.064 69.7772C129.2 69.5471 129.268 69.2901 129.268 69.0063C129.268 68.7301 129.2 68.4847 129.064 68.2699C128.936 68.0551 128.752 67.8863 128.512 67.7636C128.272 67.6409 127.993 67.5795 127.673 67.5795C127.361 67.5795 127.081 67.6409 126.833 67.7636C126.585 67.8787 126.393 68.0397 126.257 68.2469C126.121 68.454 126.053 68.6956 126.053 68.9718C126.053 69.2556 126.121 69.5164 126.257 69.7542C126.401 69.9843 126.593 70.1684 126.833 70.3065C127.081 70.4446 127.365 70.5136 127.685 70.5136Z" fill="#11408D"/>
<path d="M132.457 71.7678V65.5774H134.317V67.9937H137.124V65.5774H138.995V71.7678H137.124V69.455H134.317V71.7678H132.457Z" fill="#11408D"/>
<path d="M143.81 71.8598C143.122 71.8598 142.51 71.7218 141.974 71.4456C141.446 71.1695 141.027 70.7936 140.715 70.318C140.411 69.8347 140.259 69.2863 140.259 68.6726C140.259 68.0513 140.411 67.5028 140.715 67.0272C141.027 66.5439 141.446 66.1681 141.974 65.8996C142.51 65.6234 143.122 65.4854 143.81 65.4854C144.489 65.4854 145.097 65.6234 145.633 65.8996C146.169 66.1681 146.589 66.5401 146.893 67.0157C147.197 67.4913 147.349 68.0436 147.349 68.6726C147.349 69.2863 147.197 69.8347 146.893 70.318C146.589 70.7936 146.169 71.1695 145.633 71.4456C145.097 71.7218 144.489 71.8598 143.81 71.8598ZM143.81 70.387C144.122 70.387 144.401 70.318 144.649 70.1799C144.897 70.0418 145.093 69.8462 145.237 69.5931C145.381 69.3323 145.453 69.0255 145.453 68.6726C145.453 68.3121 145.381 68.0052 145.237 67.7521C145.093 67.499 144.897 67.3033 144.649 67.1653C144.401 67.0272 144.122 66.9582 143.81 66.9582C143.498 66.9582 143.218 67.0272 142.97 67.1653C142.722 67.3033 142.522 67.499 142.37 67.7521C142.226 68.0052 142.154 68.3121 142.154 68.6726C142.154 69.0255 142.226 69.3323 142.37 69.5931C142.522 69.8462 142.722 70.0418 142.97 70.1799C143.218 70.318 143.498 70.387 143.81 70.387Z" fill="#11408D"/>
<path d="M148.477 69.2479V67.8096H151.872V69.2479H148.477Z" fill="#11408D"/>
<path d="M157.951 71.7678L155.791 68.8337L157.315 67.9707L160.158 71.7678H157.951ZM153.38 71.7678V65.5774H155.252V71.7678H153.38ZM154.7 69.4205V67.9822H156.955V69.4205H154.7ZM157.495 68.8797L155.743 68.6956L158.011 65.5774H160.002L157.495 68.8797Z" fill="#11408D"/>
<path d="M163.901 71.8598C163.213 71.8598 162.601 71.7218 162.065 71.4456C161.538 71.1695 161.118 70.7936 160.806 70.318C160.502 69.8347 160.35 69.2863 160.35 68.6726C160.35 68.0513 160.502 67.5028 160.806 67.0272C161.118 66.5439 161.538 66.1681 162.065 65.8996C162.601 65.6234 163.213 65.4854 163.901 65.4854C164.581 65.4854 165.188 65.6234 165.724 65.8996C166.26 66.1681 166.68 66.5401 166.984 67.0157C167.288 67.4913 167.44 68.0436 167.44 68.6726C167.44 69.2863 167.288 69.8347 166.984 70.318C166.68 70.7936 166.26 71.1695 165.724 71.4456C165.188 71.7218 164.581 71.8598 163.901 71.8598ZM163.901 70.387C164.213 70.387 164.493 70.318 164.741 70.1799C164.988 70.0418 165.184 69.8462 165.328 69.5931C165.472 69.3323 165.544 69.0255 165.544 68.6726C165.544 68.3121 165.472 68.0052 165.328 67.7521C165.184 67.499 164.988 67.3033 164.741 67.1653C164.493 67.0272 164.213 66.9582 163.901 66.9582C163.589 66.9582 163.309 67.0272 163.061 67.1653C162.813 67.3033 162.613 67.499 162.461 67.7521C162.317 68.0052 162.245 68.3121 162.245 68.6726C162.245 69.0255 162.317 69.3323 162.461 69.5931C162.613 69.8462 162.813 70.0418 163.061 70.1799C163.309 70.318 163.589 70.387 163.901 70.387Z" fill="#11408D"/>
<path d="M168.727 71.7678V65.5774H170.586V67.9937H173.393V65.5774H175.265V71.7678H173.393V69.455H170.586V71.7678H168.727Z" fill="#11408D"/>
<path d="M180.127 71.8598C179.431 71.8598 178.812 71.7256 178.268 71.4571C177.724 71.181 177.296 70.8013 176.984 70.318C176.68 69.8347 176.528 69.2863 176.528 68.6726C176.528 68.0513 176.68 67.5028 176.984 67.0272C177.296 66.5439 177.724 66.1681 178.268 65.8996C178.812 65.6234 179.431 65.4854 180.127 65.4854C180.807 65.4854 181.399 65.6234 181.903 65.8996C182.406 66.1681 182.778 66.5554 183.018 67.0617L181.567 67.8096C181.399 67.5181 181.187 67.3033 180.931 67.1653C180.683 67.0272 180.411 66.9582 180.115 66.9582C179.795 66.9582 179.507 67.0272 179.251 67.1653C178.996 67.3033 178.792 67.499 178.64 67.7521C178.496 68.0052 178.424 68.3121 178.424 68.6726C178.424 69.0331 178.496 69.34 178.64 69.5931C178.792 69.8462 178.996 70.0418 179.251 70.1799C179.507 70.318 179.795 70.387 180.115 70.387C180.411 70.387 180.683 70.3218 180.931 70.1914C181.187 70.0533 181.399 69.8347 181.567 69.5356L183.018 70.295C182.778 70.7936 182.406 71.181 181.903 71.4571C181.399 71.7256 180.807 71.8598 180.127 71.8598Z" fill="#11408D"/>
<path d="M188.018 71.7678V70.5596L187.898 70.295V68.1318C187.898 67.7483 187.774 67.4491 187.526 67.2343C187.286 67.0195 186.915 66.9121 186.411 66.9121C186.067 66.9121 185.727 66.9658 185.391 67.0732C185.063 67.1729 184.783 67.311 184.551 67.4874L183.88 66.2333C184.231 65.9955 184.655 65.8114 185.151 65.681C185.647 65.5506 186.151 65.4854 186.663 65.4854C187.646 65.4854 188.41 65.7078 188.954 66.1527C189.498 66.5976 189.77 67.2918 189.77 68.2354V71.7678H188.018ZM186.051 71.8598C185.547 71.8598 185.115 71.7793 184.755 71.6182C184.395 71.4494 184.119 71.2232 183.928 70.9393C183.736 70.6555 183.64 70.3372 183.64 69.9843C183.64 69.6161 183.732 69.2939 183.916 69.0178C184.107 68.7416 184.407 68.5268 184.815 68.3734C185.223 68.2123 185.755 68.1318 186.411 68.1318H188.126V69.1789H186.615C186.175 69.1789 185.871 69.2479 185.703 69.386C185.543 69.5241 185.463 69.6967 185.463 69.9038C185.463 70.1339 185.555 70.318 185.739 70.4561C185.931 70.5865 186.191 70.6517 186.519 70.6517C186.831 70.6517 187.11 70.5826 187.358 70.4446C187.606 70.2988 187.786 70.0879 187.898 69.8117L188.186 70.6402C188.05 71.0391 187.802 71.3421 187.442 71.5492C187.082 71.7563 186.619 71.8598 186.051 71.8598Z" fill="#11408D"/>
<path d="M190.58 71.7563L190.676 70.2835C190.724 70.2911 190.771 70.2988 190.819 70.3065C190.867 70.3065 190.911 70.3065 190.951 70.3065C191.175 70.3065 191.351 70.2451 191.479 70.1224C191.607 69.9997 191.703 69.8347 191.767 69.6276C191.831 69.4128 191.875 69.1712 191.899 68.9027C191.931 68.6342 191.955 68.3543 191.971 68.0628L192.067 65.5774H197.585V71.7678H195.714V66.613L196.134 67.0502H193.303L193.699 66.59L193.615 68.1433C193.591 68.6956 193.543 69.2019 193.471 69.6621C193.407 70.1224 193.299 70.5213 193.147 70.8588C192.995 71.1886 192.791 71.4456 192.535 71.6297C192.279 71.8061 191.951 71.8944 191.551 71.8944C191.407 71.8944 191.255 71.8828 191.095 71.8598C190.935 71.8368 190.763 71.8023 190.58 71.7563Z" fill="#11408D"/>
<path d="M200.764 71.7678V66.636L201.184 67.0502H198.581V65.5774H204.807V67.0502H202.204L202.624 66.636V71.7678H200.764Z" fill="#11408D"/>
<path d="M205.805 71.7678V65.5774H207.664V69.2594L210.807 65.5774H212.523V71.7678H210.663V68.0858L207.532 71.7678H205.805Z" fill="#11408D"/>
<path d="M214.321 71.7678V65.5774H216.181V67.9937H218.988V65.5774H220.859V71.7678H218.988V69.455H216.181V71.7678H214.321Z" fill="#11408D"/>
<path d="M222.651 71.7678V65.5774H227.821V67.0502H224.09L224.51 66.659V71.7678H222.651Z" fill="#11408D"/>
<path d="M231.566 71.8598C230.879 71.8598 230.267 71.7218 229.731 71.4456C229.203 71.1695 228.783 70.7936 228.471 70.318C228.168 69.8347 228.016 69.2863 228.016 68.6726C228.016 68.0513 228.168 67.5028 228.471 67.0272C228.783 66.5439 229.203 66.1681 229.731 65.8996C230.267 65.6234 230.879 65.4854 231.566 65.4854C232.246 65.4854 232.854 65.6234 233.39 65.8996C233.926 66.1681 234.346 66.5401 234.649 67.0157C234.953 67.4913 235.105 68.0436 235.105 68.6726C235.105 69.2863 234.953 69.8347 234.649 70.318C234.346 70.7936 233.926 71.1695 233.39 71.4456C232.854 71.7218 232.246 71.8598 231.566 71.8598ZM231.566 70.387C231.878 70.387 232.158 70.318 232.406 70.1799C232.654 70.0418 232.85 69.8462 232.994 69.5931C233.138 69.3323 233.21 69.0255 233.21 68.6726C233.21 68.3121 233.138 68.0052 232.994 67.7521C232.85 67.499 232.654 67.3033 232.406 67.1653C232.158 67.0272 231.878 66.9582 231.566 66.9582C231.255 66.9582 230.975 67.0272 230.727 67.1653C230.479 67.3033 230.279 67.499 230.127 67.7521C229.983 68.0052 229.911 68.3121 229.911 68.6726C229.911 69.0255 229.983 69.3323 230.127 69.5931C230.279 69.8462 230.479 70.0418 230.727 70.1799C230.975 70.318 231.255 70.387 231.566 70.387Z" fill="#11408D"/>
<path d="M236.392 71.7678V65.5774H239.691C240.499 65.5774 241.131 65.7193 241.587 66.0031C242.043 66.2793 242.271 66.6705 242.271 67.1768C242.271 67.6831 242.055 68.0819 241.623 68.3734C241.199 68.6573 240.635 68.7992 239.931 68.7992L240.123 68.3849C240.907 68.3849 241.491 68.523 241.875 68.7992C242.267 69.0753 242.463 69.478 242.463 70.0073C242.463 70.552 242.247 70.9815 241.815 71.296C241.383 71.6105 240.723 71.7678 239.835 71.7678H236.392ZM238.108 70.5481H239.679C240.023 70.5481 240.279 70.4944 240.447 70.387C240.623 70.272 240.711 70.0994 240.711 69.8692C240.711 69.6315 240.631 69.4589 240.471 69.3515C240.311 69.2364 240.059 69.1789 239.715 69.1789H238.108V70.5481ZM238.108 68.1203H239.523C239.851 68.1203 240.095 68.0628 240.255 67.9477C240.423 67.8326 240.507 67.6677 240.507 67.4529C240.507 67.2305 240.423 67.0656 240.255 66.9582C240.095 66.8508 239.851 66.7971 239.523 66.7971H238.108V68.1203Z" fill="#11408D"/>
<path d="M250.501 71.7678V65.5774H252.36V71.7678H250.501ZM247.25 67.5565C248.098 67.5642 248.733 67.7483 249.157 68.1088C249.589 68.4616 249.805 68.9641 249.805 69.6161C249.805 70.2988 249.561 70.8319 249.073 71.2155C248.585 71.5914 247.894 71.7793 246.998 71.7793L243.855 71.7678V65.5774H245.714V67.5565H247.25ZM246.83 70.5021C247.19 70.5098 247.466 70.4369 247.658 70.2835C247.85 70.1301 247.946 69.8999 247.946 69.5931C247.946 69.2863 247.85 69.0676 247.658 68.9372C247.466 68.7992 247.19 68.7263 246.83 68.7186L245.714 68.7071V70.5021H246.83Z" fill="#11408D"/>
<path d="M254.164 71.7678V65.5774H256.023V69.2594L259.166 65.5774H260.882V71.7678H259.022V68.0858L255.892 71.7678H254.164ZM257.403 64.91C256.699 64.91 256.171 64.7643 255.82 64.4728C255.468 64.1736 255.288 63.7249 255.28 63.1266H256.503C256.511 63.3874 256.587 63.5945 256.731 63.7479C256.875 63.9013 257.095 63.978 257.391 63.978C257.679 63.978 257.899 63.9013 258.051 63.7479C258.211 63.5945 258.291 63.3874 258.291 63.1266H259.538C259.538 63.7249 259.358 64.1736 258.999 64.4728C258.639 64.7643 258.107 64.91 257.403 64.91Z" fill="#11408D"/>
<path d="M266.078 71.7678V65.5774H267.938V70.295H270.541V65.5774H272.412V71.7678H266.078ZM271.608 73.1025V71.7448L272.04 71.7678H270.541V70.295H273.348V73.1025H271.608Z" fill="#11408D"/>
<path d="M277.68 71.8598C276.944 71.8598 276.296 71.7218 275.736 71.4456C275.184 71.1695 274.757 70.7936 274.453 70.318C274.149 69.8347 273.997 69.2863 273.997 68.6726C273.997 68.0513 274.145 67.5028 274.441 67.0272C274.745 66.5439 275.156 66.1681 275.676 65.8996C276.196 65.6234 276.784 65.4854 277.44 65.4854C278.072 65.4854 278.639 65.6158 279.143 65.8766C279.655 66.1297 280.059 66.4979 280.355 66.9812C280.651 67.4568 280.799 68.0282 280.799 68.6956C280.799 68.7646 280.795 68.8452 280.787 68.9372C280.779 69.0216 280.771 69.1022 280.763 69.1789H275.52V68.1318H279.779L279.059 68.4425C279.059 68.1203 278.991 67.8403 278.855 67.6025C278.719 67.3647 278.531 67.1806 278.291 67.0502C278.052 66.9121 277.772 66.8431 277.452 66.8431C277.132 66.8431 276.848 66.9121 276.6 67.0502C276.36 67.1806 276.172 67.3685 276.036 67.614C275.9 67.8518 275.832 68.1356 275.832 68.4655V68.7416C275.832 69.0791 275.908 69.3783 276.06 69.6391C276.22 69.8923 276.44 70.0879 276.72 70.2259C277.008 70.3563 277.344 70.4215 277.728 70.4215C278.072 70.4215 278.371 70.3717 278.627 70.272C278.891 70.1722 279.131 70.0227 279.347 69.8232L280.343 70.8588C280.047 71.181 279.675 71.4303 279.227 71.6067C278.779 71.7755 278.263 71.8598 277.68 71.8598Z" fill="#11408D"/>
<path d="M282.233 71.7678V65.5774H284.093V67.9937H286.9V65.5774H288.771V71.7678H286.9V69.455H284.093V71.7678H282.233Z" fill="#11408D"/>
<path d="M291.942 71.7678V66.636L292.362 67.0502H289.759V65.5774H295.985V67.0502H293.382L293.801 66.636V71.7678H291.942Z" fill="#11408D"/>
<path d="M300.785 71.8598C300.241 71.8598 299.765 71.7448 299.357 71.5146C298.95 71.2845 298.63 70.9355 298.398 70.4676C298.174 69.992 298.062 69.3937 298.062 68.6726C298.062 67.9439 298.17 67.3455 298.386 66.8776C298.602 66.4097 298.914 66.0607 299.322 65.8305C299.729 65.6004 300.217 65.4854 300.785 65.4854C301.393 65.4854 301.937 65.6196 302.417 65.8881C302.904 66.1489 303.288 66.5171 303.568 66.9927C303.856 67.4683 304 68.0282 304 68.6726C304 69.3246 303.856 69.8884 303.568 70.364C303.288 70.8396 302.904 71.2078 302.417 71.4686C301.937 71.7294 301.393 71.8598 300.785 71.8598ZM296.97 74V65.5774H298.758V66.8431L298.722 68.6841L298.842 70.5136V74H296.97ZM300.461 70.387C300.773 70.387 301.049 70.318 301.289 70.1799C301.537 70.0418 301.733 69.8462 301.877 69.5931C302.029 69.3323 302.105 69.0255 302.105 68.6726C302.105 68.3121 302.029 68.0052 301.877 67.7521C301.733 67.499 301.537 67.3033 301.289 67.1653C301.049 67.0272 300.773 66.9582 300.461 66.9582C300.149 66.9582 299.869 67.0272 299.621 67.1653C299.374 67.3033 299.178 67.499 299.034 67.7521C298.89 68.0052 298.818 68.3121 298.818 68.6726C298.818 69.0255 298.89 69.3323 299.034 69.5931C299.178 69.8462 299.374 70.0418 299.621 70.1799C299.869 70.318 300.149 70.387 300.461 70.387Z" fill="#11408D"/>
<path d="M102.426 29.5705C103.345 29.8213 104.114 29.8951 104.732 29.7918C105.366 29.6738 105.929 29.2607 106.421 28.5525L107.229 27.4238L107.586 27.0475L113.103 17H116.884L109.797 29.2607C109.163 30.3672 108.41 31.2156 107.538 31.8057C106.682 32.3959 105.739 32.7279 104.708 32.8016C103.678 32.8902 102.608 32.7205 101.498 32.2926L102.426 29.5705ZM107.515 30.0352L100 17H104.114L109.631 27.4016L107.515 30.0352Z" fill="#F0831F"/>
<path d="M117.942 32.4918V20.5852H130.664V32.4918H126.954V22.6434L127.786 23.418H120.795L121.627 22.6434V32.4918H117.942Z" fill="#F0831F"/>
<path d="M141.759 32.6689C140.681 32.6689 139.738 32.4475 138.929 32.0049C138.121 31.5623 137.486 30.891 137.027 29.991C136.583 29.0762 136.361 27.9254 136.361 26.5385C136.361 25.1369 136.575 23.9861 137.003 23.0861C137.431 22.1861 138.049 21.5148 138.858 21.0721C139.666 20.6295 140.633 20.4082 141.759 20.4082C142.964 20.4082 144.042 20.6664 144.993 21.1828C145.96 21.6844 146.721 22.3926 147.276 23.3074C147.847 24.2221 148.132 25.2992 148.132 26.5385C148.132 27.7926 147.847 28.877 147.276 29.7918C146.721 30.7066 145.96 31.4148 144.993 31.9164C144.042 32.418 142.964 32.6689 141.759 32.6689ZM134.197 36.7852V20.5852H137.74V23.0197L137.669 26.5607L137.907 30.0795V36.7852H134.197ZM141.117 29.8361C141.735 29.8361 142.282 29.7033 142.758 29.4377C143.249 29.1721 143.638 28.7959 143.923 28.309C144.224 27.8074 144.375 27.2172 144.375 26.5385C144.375 25.8451 144.224 25.2549 143.923 24.768C143.638 24.2811 143.249 23.9049 142.758 23.6393C142.282 23.3738 141.735 23.241 141.117 23.241C140.499 23.241 139.944 23.3738 139.452 23.6393C138.961 23.9049 138.572 24.2811 138.287 24.768C138.002 25.2549 137.859 25.8451 137.859 26.5385C137.859 27.2172 138.002 27.8074 138.287 28.309C138.572 28.7959 138.961 29.1721 139.452 29.4377C139.944 29.7033 140.499 29.8361 141.117 29.8361Z" fill="#F0831F"/>
<path d="M158.18 32.4918V30.168L157.942 29.659V25.4984C157.942 24.7607 157.697 24.1852 157.205 23.7721C156.73 23.359 155.992 23.1525 154.994 23.1525C154.312 23.1525 153.638 23.2557 152.972 23.4623C152.322 23.6541 151.768 23.9197 151.308 24.259L149.976 21.8467C150.674 21.3893 151.514 21.0352 152.497 20.7844C153.48 20.5336 154.478 20.4082 155.493 20.4082C157.443 20.4082 158.957 20.8361 160.035 21.6918C161.113 22.5475 161.652 23.8828 161.652 25.6975V32.4918H158.18ZM154.28 32.6689C153.282 32.6689 152.425 32.5139 151.712 32.2041C150.999 31.8795 150.452 31.4443 150.071 30.8984C149.691 30.3525 149.5 29.7402 149.5 29.0615C149.5 28.3533 149.683 27.7336 150.047 27.2025C150.428 26.6713 151.022 26.2582 151.831 25.9631C152.639 25.6533 153.694 25.4984 154.994 25.4984H158.394V27.5123H155.398C154.526 27.5123 153.924 27.6451 153.591 27.9107C153.274 28.1762 153.115 28.5082 153.115 28.9066C153.115 29.3492 153.297 29.7033 153.662 29.9689C154.042 30.2197 154.558 30.3451 155.208 30.3451C155.826 30.3451 156.381 30.2123 156.872 29.9467C157.364 29.6664 157.72 29.2607 157.942 28.7295L158.513 30.323C158.244 31.0902 157.752 31.673 157.039 32.0713C156.325 32.4697 155.406 32.6689 154.28 32.6689Z" fill="#F0831F"/>
<path d="M164.875 32.4918V20.5852H171.414C173.015 20.5852 174.268 20.8582 175.171 21.4041C176.075 21.9352 176.527 22.6877 176.527 23.6615C176.527 24.6352 176.099 25.4025 175.243 25.9631C174.403 26.509 173.285 26.782 171.89 26.782L172.27 25.9852C173.824 25.9852 174.981 26.2508 175.742 26.782C176.519 27.3131 176.907 28.0877 176.907 29.1057C176.907 30.1533 176.479 30.9795 175.623 31.5844C174.767 32.1893 173.459 32.4918 171.7 32.4918H164.875ZM168.275 30.1459H171.39C172.072 30.1459 172.579 30.0426 172.912 29.8361C173.261 29.6148 173.435 29.2828 173.435 28.8402C173.435 28.3828 173.277 28.0508 172.96 27.8443C172.643 27.623 172.143 27.5123 171.462 27.5123H168.275V30.1459ZM168.275 25.4762H171.081C171.731 25.4762 172.215 25.3656 172.532 25.1443C172.865 24.923 173.031 24.6057 173.031 24.1926C173.031 23.7648 172.865 23.4475 172.532 23.241C172.215 23.0344 171.731 22.9311 171.081 22.9311H168.275V25.4762Z" fill="#F0831F"/>
<path d="M178.051 32.4697L178.241 29.6369C178.336 29.6516 178.431 29.6664 178.526 29.6811C178.621 29.6811 178.708 29.6811 178.788 29.6811C179.232 29.6811 179.58 29.5631 179.834 29.3271C180.088 29.091 180.278 28.7738 180.405 28.3754C180.532 27.9623 180.619 27.4975 180.666 26.9811C180.73 26.4648 180.777 25.9262 180.809 25.3656L180.999 20.5852H191.938V32.4918H188.228V22.577L189.061 23.418H183.449L184.233 22.5328L184.067 25.5205C184.019 26.5828 183.924 27.5566 183.782 28.4418C183.655 29.3271 183.441 30.0943 183.139 30.7434C182.838 31.3779 182.434 31.8721 181.927 32.2262C181.419 32.5656 180.769 32.7352 179.977 32.7352C179.691 32.7352 179.39 32.7131 179.073 32.6689C178.756 32.6246 178.415 32.5582 178.051 32.4697Z" fill="#F0831F"/>
<path d="M201.76 32.6689C200.301 32.6689 199.017 32.4033 197.907 31.8721C196.813 31.341 195.965 30.618 195.363 29.7033C194.76 28.7738 194.459 27.7189 194.459 26.5385C194.459 25.3434 194.752 24.2885 195.339 23.3738C195.941 22.4443 196.758 21.7213 197.788 21.2049C198.819 20.6738 199.984 20.4082 201.284 20.4082C202.536 20.4082 203.662 20.659 204.661 21.1607C205.675 21.6475 206.476 22.3557 207.063 23.2852C207.649 24.2 207.942 25.2992 207.942 26.5828C207.942 26.7156 207.935 26.8705 207.919 27.0475C207.903 27.2098 207.887 27.3648 207.871 27.5123H197.479V25.4984H205.921L204.494 26.0959C204.494 25.4762 204.36 24.9377 204.09 24.4803C203.821 24.023 203.448 23.6689 202.972 23.418C202.497 23.1525 201.942 23.0197 201.308 23.0197C200.674 23.0197 200.111 23.1525 199.619 23.418C199.144 23.6689 198.771 24.0303 198.502 24.5025C198.232 24.9598 198.097 25.5057 198.097 26.1402V26.6713C198.097 27.3205 198.248 27.8959 198.549 28.3975C198.866 28.8844 199.302 29.2607 199.857 29.5262C200.428 29.7771 201.094 29.9025 201.855 29.9025C202.536 29.9025 203.131 29.8066 203.638 29.6148C204.161 29.423 204.637 29.1352 205.065 28.7516L207.039 30.7434C206.452 31.3631 205.715 31.8426 204.827 32.182C203.939 32.5066 202.917 32.6689 201.76 32.6689Z" fill="#F0831F"/>
<path d="M210.786 32.4918V20.5852H214.472V25.2328H220.036V20.5852H223.746V32.4918H220.036V28.0434H214.472V32.4918H210.786Z" fill="#F0831F"/>
<path d="M227.297 32.4918V20.5852H230.983V27.6672L237.214 20.5852H240.614V32.4918H236.928V25.4098L230.722 32.4918H227.297Z" fill="#F0831F"/>
<path d="M250.434 32.6689C248.976 32.6689 247.692 32.4033 246.582 31.8721C245.488 31.341 244.64 30.618 244.038 29.7033C243.435 28.7738 243.134 27.7189 243.134 26.5385C243.134 25.3434 243.427 24.2885 244.014 23.3738C244.616 22.4443 245.433 21.7213 246.463 21.2049C247.494 20.6738 248.659 20.4082 249.959 20.4082C251.211 20.4082 252.337 20.659 253.336 21.1607C254.35 21.6475 255.151 22.3557 255.737 23.2852C256.324 24.2 256.617 25.2992 256.617 26.5828C256.617 26.7156 256.609 26.8705 256.594 27.0475C256.578 27.2098 256.562 27.3648 256.546 27.5123H246.154V25.4984H254.596L253.169 26.0959C253.169 25.4762 253.034 24.9377 252.765 24.4803C252.495 24.023 252.123 23.6689 251.647 23.418C251.172 23.1525 250.617 23.0197 249.983 23.0197C249.349 23.0197 248.786 23.1525 248.294 23.418C247.819 23.6689 247.446 24.0303 247.177 24.5025C246.907 24.9598 246.772 25.5057 246.772 26.1402V26.6713C246.772 27.3205 246.923 27.8959 247.224 28.3975C247.541 28.8844 247.977 29.2607 248.532 29.5262C249.103 29.7771 249.769 29.9025 250.53 29.9025C251.211 29.9025 251.806 29.8066 252.313 29.6148C252.836 29.423 253.312 29.1352 253.74 28.7516L255.714 30.7434C255.127 31.3631 254.39 31.8426 253.502 32.182C252.614 32.5066 251.592 32.6689 250.434 32.6689Z" fill="#F0831F"/>
<path d="M101.855 52.7787V37.2869H115.291V40.1418H105.683V43.3287H110.297C112.31 43.3287 113.84 43.7197 114.886 44.5016C115.949 45.2836 116.48 46.4197 116.48 47.9098C116.48 49.4443 115.893 50.6393 114.72 51.4951C113.547 52.3508 111.89 52.7787 109.75 52.7787H101.855ZM105.683 50.123H109.536C110.519 50.123 111.272 49.9459 111.795 49.5918C112.318 49.2229 112.58 48.6918 112.58 47.9984C112.58 46.641 111.565 45.9623 109.536 45.9623H105.683V50.123Z" fill="#F0831F"/>
<path d="M125.38 52.9557C123.922 52.9557 122.637 52.6902 121.528 52.159C120.434 51.6279 119.586 50.9049 118.983 49.9902C118.381 49.0607 118.08 48.0057 118.08 46.8254C118.08 45.6303 118.373 44.5754 118.959 43.6607C119.562 42.7311 120.378 42.0082 121.409 41.4918C122.439 40.9607 123.604 40.6951 124.904 40.6951C126.157 40.6951 127.282 40.9459 128.281 41.4475C129.296 41.9344 130.096 42.6426 130.683 43.5721C131.27 44.4869 131.563 45.5861 131.563 46.8697C131.563 47.0025 131.555 47.1574 131.539 47.3344C131.523 47.4967 131.507 47.6516 131.492 47.7992H121.1V45.7852H129.542L128.115 46.3828C128.115 45.7631 127.98 45.2246 127.71 44.7672C127.441 44.3098 127.068 43.9557 126.593 43.7049C126.117 43.4393 125.562 43.3066 124.928 43.3066C124.294 43.3066 123.731 43.4393 123.24 43.7049C122.764 43.9557 122.392 44.3172 122.122 44.7893C121.853 45.2467 121.718 45.7926 121.718 46.427V46.9582C121.718 47.6074 121.869 48.1828 122.17 48.6844C122.487 49.1713 122.923 49.5475 123.478 49.8131C124.048 50.0639 124.714 50.1893 125.475 50.1893C126.157 50.1893 126.751 50.0934 127.259 49.9016C127.782 49.7098 128.257 49.4221 128.685 49.0385L130.659 51.0303C130.073 51.65 129.335 52.1295 128.448 52.4689C127.56 52.7934 126.537 52.9557 125.38 52.9557Z" fill="#F0831F"/>
<path d="M138.572 53C137.589 53 136.606 52.9041 135.623 52.7123C134.656 52.5205 133.76 52.2328 132.936 51.8492L133.935 49.4369C134.585 49.732 135.29 49.9607 136.051 50.123C136.828 50.2705 137.613 50.3443 138.405 50.3443C138.976 50.3443 139.468 50.2926 139.88 50.1893C140.308 50.0713 140.633 49.909 140.855 49.7025C141.077 49.4959 141.188 49.2451 141.188 48.95C141.188 48.5664 141.013 48.2787 140.664 48.0869C140.316 47.8803 139.808 47.777 139.143 47.777H136.527V45.6303H138.833C139.261 45.6303 139.626 45.5861 139.927 45.4975C140.229 45.409 140.45 45.2836 140.593 45.1213C140.752 44.9443 140.831 44.7377 140.831 44.5016C140.831 44.2508 140.736 44.0369 140.546 43.8598C140.355 43.6828 140.078 43.55 139.713 43.4615C139.349 43.3582 138.889 43.3066 138.334 43.3066C137.7 43.3066 137.042 43.3803 136.36 43.5279C135.679 43.6607 134.981 43.8598 134.268 44.1254L133.364 41.7352C134.204 41.4107 135.037 41.1525 135.861 40.9607C136.685 40.7689 137.502 40.6656 138.31 40.6508C139.499 40.6213 140.569 40.7393 141.521 41.0049C142.472 41.2705 143.217 41.6541 143.756 42.1557C144.311 42.6574 144.588 43.2697 144.588 43.9926C144.588 44.568 144.398 45.0844 144.017 45.5418C143.653 45.9992 143.146 46.3607 142.496 46.6262C141.846 46.8771 141.116 47.0025 140.308 47.0025L140.403 46.3164C141.814 46.3164 142.924 46.582 143.732 47.1131C144.541 47.6295 144.945 48.3377 144.945 49.2377C144.945 50.0049 144.66 50.6762 144.089 51.2516C143.534 51.8123 142.773 52.2475 141.806 52.5574C140.855 52.8525 139.777 53 138.572 53Z" fill="#F0831F"/>
<path d="M153.59 52.9557C152.226 52.9557 151.013 52.6902 149.951 52.159C148.905 51.6279 148.073 50.9049 147.454 49.9902C146.852 49.0607 146.551 48.0057 146.551 46.8254C146.551 45.6303 146.852 44.5754 147.454 43.6607C148.073 42.7311 148.905 42.0082 149.951 41.4918C151.013 40.9607 152.226 40.6951 153.59 40.6951C154.937 40.6951 156.142 40.9607 157.204 41.4918C158.266 42.0082 159.099 42.7238 159.701 43.6385C160.303 44.5533 160.605 45.6156 160.605 46.8254C160.605 48.0057 160.303 49.0607 159.701 49.9902C159.099 50.9049 158.266 51.6279 157.204 52.159C156.142 52.6902 154.937 52.9557 153.59 52.9557ZM153.59 50.123C154.208 50.123 154.763 49.9902 155.254 49.7246C155.746 49.459 156.134 49.0828 156.419 48.5959C156.705 48.0943 156.847 47.5041 156.847 46.8254C156.847 46.132 156.705 45.5418 156.419 45.0549C156.134 44.568 155.746 44.1918 155.254 43.9262C154.763 43.6607 154.208 43.5279 153.59 43.5279C152.971 43.5279 152.416 43.6607 151.925 43.9262C151.433 44.1918 151.037 44.568 150.736 45.0549C150.451 45.5418 150.308 46.132 150.308 46.8254C150.308 47.5041 150.451 48.0943 150.736 48.5959C151.037 49.0828 151.433 49.459 151.925 49.7246C152.416 49.9902 152.971 50.123 153.59 50.123Z" fill="#F0831F"/>
<path d="M163.156 52.7787V40.8721H175.879V52.7787H172.169V42.9303L173.001 43.7049H166.01L166.842 42.9303V52.7787H163.156Z" fill="#F0831F"/>
<path d="M187.093 52.7787V50.4549L186.855 49.9459V45.7852C186.855 45.0475 186.609 44.4721 186.118 44.059C185.642 43.6459 184.905 43.4393 183.906 43.4393C183.224 43.4393 182.551 43.5426 181.885 43.7492C181.235 43.941 180.68 44.2066 180.22 44.5459L178.888 42.1336C179.586 41.6762 180.426 41.3221 181.409 41.0713C182.392 40.8205 183.391 40.6951 184.405 40.6951C186.355 40.6951 187.869 41.123 188.947 41.9787C190.025 42.8344 190.564 44.1697 190.564 45.9844V52.7787H187.093ZM183.193 52.9557C182.194 52.9557 181.338 52.8008 180.624 52.491C179.911 52.1664 179.364 51.7311 178.983 51.1852C178.603 50.6393 178.413 50.0271 178.413 49.3484C178.413 48.6402 178.595 48.0205 178.96 47.4893C179.34 46.9582 179.935 46.5451 180.743 46.25C181.552 45.9402 182.606 45.7852 183.906 45.7852H187.307V47.7992H184.31C183.438 47.7992 182.836 47.932 182.503 48.1975C182.186 48.4631 182.027 48.7951 182.027 49.1934C182.027 49.6361 182.21 49.9902 182.574 50.2557C182.955 50.5066 183.47 50.632 184.12 50.632C184.738 50.632 185.293 50.4992 185.785 50.2336C186.276 49.9533 186.633 49.5475 186.855 49.0164L187.425 50.6098C187.156 51.377 186.664 51.9598 185.951 52.3582C185.238 52.7566 184.318 52.9557 183.193 52.9557Z" fill="#F0831F"/>
<path d="M199.875 52.9557C198.495 52.9557 197.267 52.6975 196.189 52.1811C195.111 51.65 194.263 50.9197 193.644 49.9902C193.042 49.0607 192.741 48.0057 192.741 46.8254C192.741 45.6303 193.042 44.5754 193.644 43.6607C194.263 42.7311 195.111 42.0082 196.189 41.4918C197.267 40.9607 198.495 40.6951 199.875 40.6951C201.222 40.6951 202.395 40.9607 203.394 41.4918C204.393 42.0082 205.13 42.7533 205.606 43.727L202.728 45.1656C202.395 44.6049 201.975 44.1918 201.468 43.9262C200.976 43.6607 200.437 43.5279 199.851 43.5279C199.217 43.5279 198.646 43.6607 198.139 43.9262C197.631 44.1918 197.227 44.568 196.926 45.0549C196.641 45.5418 196.498 46.132 196.498 46.8254C196.498 47.5189 196.641 48.109 196.926 48.5959C197.227 49.0828 197.631 49.459 198.139 49.7246C198.646 49.9902 199.217 50.123 199.851 50.123C200.437 50.123 200.976 49.9975 201.468 49.7467C201.975 49.4811 202.395 49.0607 202.728 48.4852L205.606 49.9459C205.13 50.9049 204.393 51.65 203.394 52.1811C202.395 52.6975 201.222 52.9557 199.875 52.9557Z" fill="#F0831F"/>
<path d="M207.86 52.7787V40.8721H211.546V45.5197H217.11V40.8721H220.82V52.7787H217.11V48.3303H211.546V52.7787H207.86Z" fill="#F0831F"/>
<path d="M230.364 52.9557C229.001 52.9557 227.788 52.6902 226.726 52.159C225.679 51.6279 224.847 50.9049 224.229 49.9902C223.626 49.0607 223.325 48.0057 223.325 46.8254C223.325 45.6303 223.626 44.5754 224.229 43.6607C224.847 42.7311 225.679 42.0082 226.726 41.4918C227.788 40.9607 229.001 40.6951 230.364 40.6951C231.711 40.6951 232.916 40.9607 233.978 41.4918C235.041 42.0082 235.873 42.7238 236.475 43.6385C237.078 44.5533 237.379 45.6156 237.379 46.8254C237.379 48.0057 237.078 49.0607 236.475 49.9902C235.873 50.9049 235.041 51.6279 233.978 52.159C232.916 52.6902 231.711 52.9557 230.364 52.9557ZM230.364 50.123C230.982 50.123 231.537 49.9902 232.029 49.7246C232.52 49.459 232.908 49.0828 233.194 48.5959C233.479 48.0943 233.622 47.5041 233.622 46.8254C233.622 46.132 233.479 45.5418 233.194 45.0549C232.908 44.568 232.52 44.1918 232.029 43.9262C231.537 43.6607 230.982 43.5279 230.364 43.5279C229.746 43.5279 229.191 43.6607 228.699 43.9262C228.208 44.1918 227.812 44.568 227.51 45.0549C227.225 45.5418 227.082 46.132 227.082 46.8254C227.082 47.5041 227.225 48.0943 227.51 48.5959C227.812 49.0828 228.208 49.459 228.699 49.7246C229.191 49.9902 229.746 50.123 230.364 50.123Z" fill="#F0831F"/>
<path d="M246.018 52.9557C244.639 52.9557 243.41 52.6975 242.332 52.1811C241.254 51.65 240.406 50.9197 239.788 49.9902C239.185 49.0607 238.884 48.0057 238.884 46.8254C238.884 45.6303 239.185 44.5754 239.788 43.6607C240.406 42.7311 241.254 42.0082 242.332 41.4918C243.41 40.9607 244.639 40.6951 246.018 40.6951C247.366 40.6951 248.539 40.9607 249.538 41.4918C250.536 42.0082 251.274 42.7533 251.749 43.727L248.872 45.1656C248.539 44.6049 248.119 44.1918 247.612 43.9262C247.12 43.6607 246.581 43.5279 245.994 43.5279C245.36 43.5279 244.79 43.6607 244.282 43.9262C243.775 44.1918 243.371 44.568 243.07 45.0549C242.784 45.5418 242.641 46.132 242.641 46.8254C242.641 47.5189 242.784 48.109 243.07 48.5959C243.371 49.0828 243.775 49.459 244.282 49.7246C244.79 49.9902 245.36 50.123 245.994 50.123C246.581 50.123 247.12 49.9975 247.612 49.7467C248.119 49.4811 248.539 49.0607 248.872 48.4852L251.749 49.9459C251.274 50.9049 250.536 51.65 249.538 52.1811C248.539 52.6975 247.366 52.9557 246.018 52.9557Z" fill="#F0831F"/>
<path d="M256.692 52.7787V42.9082L257.524 43.7049H252.364V40.8721H264.706V43.7049H259.545L260.378 42.9082V52.7787H256.692Z" fill="#F0831F"/>
<path d="M266.683 52.7787V40.8721H270.369V47.9541L276.599 40.8721H280V52.7787H276.314V45.6967L270.107 52.7787H266.683Z" fill="#F0831F"/>
<path d="M80.6954 0H9.30457C4.18706 0 0 4.16695 0 9.25989V80.7401C0 85.833 4.18706 90 9.30457 90H80.6954C85.8129 90 90 85.833 90 80.7401V9.25989C90 4.16695 85.8129 0 80.6954 0Z" fill="#11408D"/>
<path fill-rule="evenodd" clip-rule="evenodd" d="M77.9642 27.0469C77.4412 50.8567 65.406 69.9716 45.0029 77.4708C24.5683 67.7517 18.9162 51.3977 18.494 32.4506C18.1852 52.063 22.7284 72.5335 45.0029 83.9938C71.6631 72.7823 78.5691 52.1936 77.9642 27.0469Z" fill="white"/>
<path fill-rule="evenodd" clip-rule="evenodd" d="M23.0251 24.8208C22.9432 24.5472 22.8613 24.2736 22.7919 24C19.1499 24.8146 15.5519 25.8282 12.0107 27.0469C15.47 26.0893 19.1751 25.3431 23.0251 24.8208ZM67.1646 24C66.7425 25.6043 66.1123 27.134 65.2995 28.5642C67.4608 29.3415 69.5339 30.2245 71.4872 31.207C71.3486 46.7837 67.8326 61.5645 54.2599 71.8931C66.0556 64.9846 70.9768 55.5017 74.789 44.7006C76.7424 39.1788 77.7001 32.7988 77.9396 27.0469C74.4047 25.8282 70.8004 24.8146 67.1646 24Z" fill="white"/>
<path fill-rule="evenodd" clip-rule="evenodd" d="M64.9719 29.5467C67.1647 30.0193 69.3449 30.5789 71.5062 31.207C69.5906 30.3799 67.5112 29.64 65.3058 28.9808C65.1987 29.1674 65.0916 29.3601 64.9719 29.5467ZM23.1133 25.5421C19.3011 25.8779 15.5772 26.3816 12.0359 27.0532C11.431 52.1936 18.3056 72.7885 44.9972 84C24.947 74.3368 16.6484 57.2304 18.4757 31.207C20.6244 30.5789 22.792 30.0255 24.9785 29.5529C24.2097 28.2906 23.5796 26.9475 23.1133 25.5421Z" fill="white"/>
<path d="M43.3514 42.4639L56 42L54.484 44H43L43.3514 42.4639Z" fill="#F0831F"/>
<path d="M34 38.6338L49 38L47.2687 40H34V38.6338Z" fill="white"/>
<path d="M57 45H34V47H57V45Z" fill="white"/>
<path d="M57 54H34V56H57V54Z" fill="#F0831F"/>
<path d="M34 59.5843L46 60L45.3297 58H34V59.5843Z" fill="white"/>
<path d="M34.7189 52H57V50.6833L33 50L34.7189 52Z" fill="white"/>
<path d="M41 42H34V44H41V42Z" fill="white"/>
<path d="M61.6341 29C48.2539 26.3109 33.8434 27.5068 28.3531 28.6251L25.8895 25.225L28.5578 25.0763C27.9243 24.766 26.6509 24.1325 26.6189 24.1067C26.5869 24.0743 25.7679 24.2165 25.3647 24.2941L25 23.5831H27.9883C27.9883 17.2999 32.1093 12.8138 34.1697 11.3529L35.8271 21.3012L37.9707 21.0039L36.1534 10.086C36.4734 9.87912 37.8747 9.27796 38.4954 9.03879L40.5559 22.1997H48.7978C49.4569 18.011 50.7943 9.51067 50.8583 9C51.6005 9.181 52.7012 9.79509 53.1619 10.086L51.3446 21.0427L53.5266 21.3788C54.0002 18.7738 54.9856 13.0789 55.184 11.4305C60.1944 15.0504 61.391 21.0427 61.3654 23.5831H65L62.7412 27.4357C62.4724 27.3516 61.263 26.925 58.5818 25.9425C58.6138 26.6018 58.9722 26.9121 59.1449 26.9897L62.3764 28.0368C62.2804 28.2631 62.0181 28.7931 61.6341 29Z" fill="#F0831F"/>
<path d="M49 7H40L42.2517 21H46.7483L49 7Z" fill="#F0831F"/>
</svg>
