<svg width="88" height="88" viewBox="0 0 88 88" fill="none" xmlns="http://www.w3.org/2000/svg">
<rect width="88" height="88" rx="14" fill="#F4F6F9"/>
<path d="M31.5556 62C30.5778 62 29.7407 61.6475 29.0444 60.9425C28.3481 60.2375 28 59.39 28 58.4V33.2C28 32.21 28.3481 31.3625 29.0444 30.6575C29.7407 29.9525 30.5778 29.6 31.5556 29.6H39.0222C39.4074 28.52 40.0519 27.65 40.9556 26.99C41.8593 26.33 42.8741 26 44 26C45.1259 26 46.1407 26.33 47.0444 26.99C47.9481 27.65 48.5926 28.52 48.9778 29.6H56.4444C57.4222 29.6 58.2593 29.9525 58.9556 30.6575C59.6519 31.3625 60 32.21 60 33.2V58.4C60 59.39 59.6519 60.2375 58.9556 60.9425C58.2593 61.6475 57.4222 62 56.4444 62H31.5556ZM36.8889 54.8H45.7778C46.2815 54.8 46.7037 54.6275 47.0444 54.2825C47.3852 53.9375 47.5556 53.51 47.5556 53C47.5556 52.49 47.3852 52.0625 47.0444 51.7175C46.7037 51.3725 46.2815 51.2 45.7778 51.2H36.8889C36.3852 51.2 35.963 51.3725 35.6222 51.7175C35.2815 52.0625 35.1111 52.49 35.1111 53C35.1111 53.51 35.2815 53.9375 35.6222 54.2825C35.963 54.6275 36.3852 54.8 36.8889 54.8ZM36.8889 47.6H51.1111C51.6148 47.6 52.037 47.4275 52.3778 47.0825C52.7185 46.7375 52.8889 46.31 52.8889 45.8C52.8889 45.29 52.7185 44.8625 52.3778 44.5175C52.037 44.1725 51.6148 44 51.1111 44H36.8889C36.3852 44 35.963 44.1725 35.6222 44.5175C35.2815 44.8625 35.1111 45.29 35.1111 45.8C35.1111 46.31 35.2815 46.7375 35.6222 47.0825C35.963 47.4275 36.3852 47.6 36.8889 47.6ZM36.8889 40.4H51.1111C51.6148 40.4 52.037 40.2275 52.3778 39.8825C52.7185 39.5375 52.8889 39.11 52.8889 38.6C52.8889 38.09 52.7185 37.6625 52.3778 37.3175C52.037 36.9725 51.6148 36.8 51.1111 36.8H36.8889C36.3852 36.8 35.963 36.9725 35.6222 37.3175C35.2815 37.6625 35.1111 38.09 35.1111 38.6C35.1111 39.11 35.2815 39.5375 35.6222 39.8825C35.963 40.2275 36.3852 40.4 36.8889 40.4ZM44 31.85C44.3852 31.85 44.7037 31.7225 44.9556 31.4675C45.2074 31.2125 45.3333 30.89 45.3333 30.5C45.3333 30.11 45.2074 29.7875 44.9556 29.5325C44.7037 29.2775 44.3852 29.15 44 29.15C43.6148 29.15 43.2963 29.2775 43.0444 29.5325C42.7926 29.7875 42.6667 30.11 42.6667 30.5C42.6667 30.89 42.7926 31.2125 43.0444 31.4675C43.2963 31.7225 43.6148 31.85 44 31.85Z" fill="#11408D"/>
</svg>
