<svg width="88" height="88" viewBox="0 0 88 88" fill="none" xmlns="http://www.w3.org/2000/svg">
<rect width="88" height="88" rx="14" fill="#F4F6F9"/>
<path d="M39 52V36C39 33.9222 40.8968 33 43 33H60V31C60 28.9222 58.0842 27 56 27H30C27.8968 27 26 28.9222 26 31V57C26 59.0778 27.8968 61 30 61H56C58.0842 61 60 59.0778 60 57V55H43C40.8968 55 39 54.0778 39 52ZM45 36C43.9579 36 43 36.9611 43 38V50C43 51.0389 43.9579 52 45 52H62V36H45ZM51 47C49.4274 47 48 45.5678 48 44C48 42.4322 49.4274 41 51 41C52.5726 41 53 42.4322 53 44C53 45.5678 52.5726 47 51 47Z" fill="#11408D"/>
</svg>
