<svg width="88" height="88" viewBox="0 0 88 88" fill="none" xmlns="http://www.w3.org/2000/svg">
<rect width="88" height="88" rx="14" fill="#F4F6F9"/>
<path d="M41.3 54.6667H28.7C27.98 54.6667 27.35 54.4 26.81 53.8667C26.27 53.3333 26 52.7111 26 52V30.6667C26 29.9556 26.27 29.3333 26.81 28.8C27.35 28.2667 27.98 28 28.7 28H59.3C60.02 28 60.65 28.2667 61.19 28.8C61.73 29.3333 62 29.9556 62 30.6667V52C62 52.7111 61.73 53.3333 61.19 53.8667C60.65 54.4 60.02 54.6667 59.3 54.6667H46.7L50.255 58.2222C50.285 58.2519 50.36 58.4296 50.48 58.7556V59.2444C50.48 59.4815 50.4125 59.6667 50.2775 59.8C50.1425 59.9333 49.955 60 49.715 60H38.06C37.91 60 37.7825 59.9481 37.6775 59.8444C37.5725 59.7407 37.52 59.6148 37.52 59.4667V58.6667C37.52 58.637 37.58 58.5037 37.7 58.2667L41.3 54.6667Z" fill="#11408D"/>
</svg>
