<svg width="88" height="88" viewBox="0 0 88 88" fill="none" xmlns="http://www.w3.org/2000/svg">
<rect width="88" height="88" rx="14" fill="#F4F6F9"/>
<path d="M37.7 37.25H50.3V32.7188H37.7V37.25ZM27.35 59C26.9675 59 26.6469 58.8697 26.3883 58.609C26.1294 58.3486 26 58.0258 26 57.6406V49.4844H33.2V50.8438C33.2 51.2289 33.3302 51.5517 33.5906 51.8121C33.8507 52.0728 34.1732 52.2031 34.5581 52.2031C34.9427 52.2031 35.2625 52.0728 35.5175 51.8121C35.7725 51.5517 35.9 51.2289 35.9 50.8438V49.4844H52.1V50.8438C52.1 51.2289 52.2302 51.5517 52.4906 51.8121C52.7507 52.0728 53.0732 52.2031 53.4581 52.2031C53.8427 52.2031 54.1625 52.0728 54.4175 51.8121C54.6725 51.5517 54.8 51.2289 54.8 50.8438V49.4844H62V57.6406C62 58.0258 61.8707 58.3486 61.6121 58.609C61.3532 58.8697 61.0325 59 60.65 59H27.35ZM26 46.7656V39.9688C26 39.2438 26.27 38.6094 26.81 38.0656C27.35 37.5219 27.98 37.25 28.7 37.25H35V32.7188C35 31.9938 35.27 31.3594 35.81 30.8156C36.35 30.2719 36.98 30 37.7 30H50.3C51.02 30 51.65 30.2719 52.19 30.8156C52.73 31.3594 53 31.9938 53 32.7188V37.25H59.3C60.02 37.25 60.65 37.5219 61.19 38.0656C61.73 38.6094 62 39.2438 62 39.9688V46.7656H54.8V45.4063C54.8 45.0211 54.6698 44.6982 54.4094 44.4375C54.1493 44.1771 53.8268 44.0469 53.4419 44.0469C53.0573 44.0469 52.7375 44.1771 52.4825 44.4375C52.2275 44.6982 52.1 45.0211 52.1 45.4063V46.7656H35.9V45.3981C35.9 45.0108 35.7698 44.6888 35.5094 44.432C35.2493 44.1753 34.9268 44.0469 34.5419 44.0469C34.1573 44.0469 33.8375 44.1771 33.5825 44.4375C33.3275 44.6982 33.2 45.0211 33.2 45.4063V46.7656H26Z" fill="#11408D"/>
</svg>
