<svg width="88" height="88" viewBox="0 0 88 88" fill="none" xmlns="http://www.w3.org/2000/svg">
<rect width="88" height="88" rx="14" fill="#F4F6F9"/>
<path d="M44.5 26C36.8875 26 30 31.891 30 41.0019C30 46.8197 34.4406 53.6621 43.3038 61.5472C43.9925 62.1509 45.0256 62.1509 45.7144 61.5472C54.5594 53.6621 59 46.8197 59 41.0019C59 31.891 52.1125 26 44.5 26ZM44.5 44.295C42.5063 44.295 40.875 42.6485 40.875 40.636C40.875 38.6236 42.5063 36.977 44.5 36.977C46.4937 36.977 48.125 38.6236 48.125 40.636C48.125 42.6485 46.4937 44.295 44.5 44.295Z" fill="#11408D"/>
</svg>
