<svg width="88" height="88" viewBox="0 0 88 88" fill="none" xmlns="http://www.w3.org/2000/svg">
<rect width="88" height="88" rx="14" fill="#F4F6F9"/>
<path d="M44 30.0079V26.8772C44 26.0901 43.055 25.7054 42.5125 26.265L37.6125 31.1448C37.2625 31.4946 37.2625 32.0368 37.6125 32.3866L42.495 37.2663C43.055 37.8085 44 37.4237 44 36.6367V33.5059C49.7925 33.5059 54.5 38.2108 54.5 44C54.5 45.3817 54.2375 46.7285 53.73 47.9353C53.4675 48.5649 53.66 49.282 54.1325 49.7542C55.025 50.6462 56.53 50.3314 57.0025 49.1596C57.65 47.568 58 45.819 58 44C58 36.2694 51.735 30.0079 44 30.0079ZM44 54.4941C38.2075 54.4941 33.5 49.7892 33.5 44C33.5 42.6183 33.7625 41.2715 34.27 40.0647C34.5325 39.4351 34.34 38.718 33.8675 38.2458C32.975 37.3538 31.47 37.6686 30.9975 38.8404C30.35 40.432 30 42.181 30 44C30 51.7306 36.265 57.9921 44 57.9921V61.1228C44 61.9099 44.945 62.2946 45.4875 61.735L50.37 56.8552C50.72 56.5054 50.72 55.9632 50.37 55.6134L45.4875 50.7337C44.945 50.1915 44 50.5763 44 51.3633V54.4941Z" fill="#11408D"/>
</svg>
