<svg width="53" height="70" viewBox="0 0 53 70" fill="none" xmlns="http://www.w3.org/2000/svg">
<path d="M21.832 45.672C21.832 43.432 22.184 41.448 22.888 39.72C23.656 37.992 24.584 36.456 25.672 35.112C26.824 33.768 28.04 32.52 29.32 31.368C30.6 30.216 31.784 29.128 32.872 28.104C34.024 27.016 34.952 25.896 35.656 24.744C36.424 23.592 36.808 22.312 36.808 20.904C36.808 18.6 35.848 16.744 33.928 15.336C32.072 13.928 29.576 13.224 26.44 13.224C23.432 13.224 20.744 13.864 18.376 15.144C16.008 16.36 14.056 18.088 12.52 20.328L0.904 13.512C3.464 9.608 7.016 6.504 11.56 4.2C16.104 1.832 21.608 0.647999 28.072 0.647999C32.872 0.647999 37.096 1.352 40.744 2.75999C44.392 4.104 47.24 6.088 49.288 8.712C51.4 11.336 52.456 14.568 52.456 18.408C52.456 20.904 52.072 23.112 51.304 25.032C50.536 26.952 49.544 28.616 48.328 30.024C47.112 31.432 45.8 32.744 44.392 33.96C43.048 35.176 41.768 36.36 40.552 37.512C39.336 38.664 38.312 39.88 37.48 41.16C36.712 42.44 36.328 43.944 36.328 45.672H21.832ZM29.128 69.768C26.44 69.768 24.232 68.904 22.504 67.176C20.776 65.448 19.912 63.4 19.912 61.032C19.912 58.6 20.776 56.584 22.504 54.984C24.232 53.32 26.44 52.488 29.128 52.488C31.88 52.488 34.088 53.32 35.752 54.984C37.48 56.584 38.344 58.6 38.344 61.032C38.344 63.4 37.48 65.448 35.752 67.176C34.088 68.904 31.88 69.768 29.128 69.768Z" fill="#B3CCF6"/>
</svg>
